<?xml version="1.0" encoding="utf-8"?>
<!-- Generator: Adobe Illustrator 16.0.0, SVG Export Plug-In . SVG Version: 6.00 Build 0)  -->
<!DOCTYPE svg PUBLIC "-//W3C//DTD SVG 1.1//EN" "http://www.w3.org/Graphics/SVG/1.1/DTD/svg11.dtd">
<svg version="1.1" id="Capa_1" xmlns="http://www.w3.org/2000/svg" xmlns:xlink="http://www.w3.org/1999/xlink" x="0px" y="0px"
	 width="21.998px" height="60.814px" viewBox="0 0 21.998 60.814" enable-background="new 0 0 21.998 60.814" xml:space="preserve">
<g>
	<path fill="#FFFFFF" d="M21.636,0.981C8.801,4.636,5.373,17.272,5.357,29.874C5.355,43.958,9.711,57.671,9.706,57.699
		c0.083,0.264-0.063,0.544-0.326,0.627c-0.263,0.084-0.544-0.063-0.628-0.325C8.746,57.975,4.36,44.156,4.357,29.874
		C4.343,17.17,7.871,3.882,21.36,0.019c0.266-0.076,0.543,0.078,0.618,0.344S21.901,0.905,21.636,0.981z"/>
	<path fill="#FFFFFF" d="M0.904,47.904l8.17,11.189l2.713-13.963c0.053-0.271,0.315-0.448,0.586-0.396
		c0.271,0.053,0.448,0.315,0.396,0.587L9.836,60.41c-0.038,0.195-0.188,0.349-0.382,0.393C9.26,60.846,9.06,60.77,8.942,60.609
		L0.096,48.494c-0.163-0.223-0.114-0.535,0.109-0.699C0.428,47.633,0.741,47.682,0.904,47.904z"/>
</g>
</svg>
