<?xml version="1.0" encoding="UTF-8" standalone="no"?>
<!-- Generator: Adobe Illustrator 16.0.0, SVG Export Plug-In . SVG Version: 6.00 Build 0)  -->
<!DOCTYPE svg  PUBLIC '-//W3C//DTD SVG 1.1//EN'  'http://www.w3.org/Graphics/SVG/1.1/DTD/svg11.dtd'>
<svg id="Capa_1" xmlns="http://www.w3.org/2000/svg" xml:space="preserve" height="101.25px" viewBox="0 0 101.958 101.254" width="101.96px" version="1.1" y="0px" x="0px" xmlns:xlink="http://www.w3.org/1999/xlink" enable-background="new 0 0 101.958 101.254">
<path stroke="#030403" stroke-width=".216" stroke-miterlimit="22.926" d="m80.148 100.94l1.797-4.486m4.532-0.001l1.91 4.486m-64.667 0l9.987-3.988m24.512 3.988l-1.91-4.486m6.258-0.001l2.351 0.997m-8.609-0.997l-1.38-3.239 7.638 3.239m-14.379-45.859l9.988 3.987-9.988 3.988m17.978 13.459l9.987-4.237-4.244 9.969m-10.239-58.32l10.238 4.237-10.238 3.988m20.275 68.788l2.197-5.483 2.335 5.483m-67.251-37.884l4.494 9.971-10.237-4.238m-1.998-35.64l3.995-10.218 4.245 10.218m27.464 51.093l-10.237 4.236 4.245-9.969m-1.997-38.88l-3.995 9.97-4.244-9.97m17.227-8.724l-10.237 4.237 4.244-10.219m37.953 28.164l-4.245-9.969 9.987 4.237m-52.183-38.631l-9.987-3.987 0.587-0.25m34.867 2.243l-0.955-2.243m-50.978 50.844l-7.241-2.892m0-2.233l7.491-3.1m-6.991-28.412l-0.5-1.174m0-7.246l6.492 2.687m95.378 65.049l-3.994 9.97-4.245-9.97m8.239-25.501l-2.997-1.167 2.997-1.24m0-32.582l-3.745-8.796 3.745 1.589" fill="none"/>
</svg>
