<?xml version="1.0" encoding="utf-8"?>
<!-- Generator: Adobe Illustrator 16.0.0, SVG Export Plug-In . SVG Version: 6.00 Build 0)  -->
<!DOCTYPE svg PUBLIC "-//W3C//DTD SVG 1.1//EN" "http://www.w3.org/Graphics/SVG/1.1/DTD/svg11.dtd">
<svg version="1.1" id="Capa_1" xmlns="http://www.w3.org/2000/svg" xmlns:xlink="http://www.w3.org/1999/xlink" x="0px" y="0px"
	 width="109.242px" height="213.704px" viewBox="0 0 109.242 213.704" enable-background="new 0 0 109.242 213.704"
	 xml:space="preserve">
<path fill="#393939" d="M3.145,16.329c0-1.42-0.002-2.843,0.003-4.265c0-0.153-0.024-0.211-0.194-0.203
	c-0.344,0.016-0.69-0.001-1.034,0.008c-0.122,0.003-0.154-0.031-0.153-0.154c0.005-1.047,0.005-2.097,0-3.145
	c0-0.122,0.03-0.157,0.152-0.153c0.353,0.008,0.703-0.005,1.056,0.007C3.12,8.427,3.148,8.377,3.146,8.241
	C3.142,7.517,3.143,6.792,3.148,6.067c0.004-0.521,0.071-1.03,0.229-1.524c0.361-1.144,1.178-1.798,2.302-2.105
	C6.509,2.207,7.36,2.183,8.215,2.2c0.773,0.015,1.55,0.017,2.325,0.011c0.167-0.001,0.196,0.047,0.194,0.202
	c-0.01,1.012-0.01,2.024,0,3.036c0.001,0.158-0.032,0.205-0.198,0.204c-0.73-0.007-1.462-0.029-2.194-0.007
	C7.936,5.656,7.629,5.83,7.404,6.157C7.323,6.274,7.282,6.401,7.282,6.542C7.284,7.117,7.289,7.69,7.279,8.265
	C7.277,8.412,7.334,8.421,7.453,8.421c1.126-0.005,2.254-0.002,3.381-0.005c0.124,0,0.183,0.008,0.148,0.159
	c-0.229,1.035-0.447,2.07-0.662,3.11c-0.029,0.143-0.083,0.179-0.224,0.177c-0.863-0.007-1.724,0.004-2.586-0.009
	c-0.183-0.001-0.233,0.035-0.232,0.229c0.008,2.836,0.002,5.67,0.011,8.506c0,0.195-0.051,0.242-0.243,0.242
	c-1.229-0.012-2.455-0.012-3.685-0.002c-0.174,0.002-0.224-0.033-0.223-0.219C3.148,19.185,3.145,17.756,3.145,16.329z"/>
<title>Layer 1</title>
<path fill="#393939" d="M34.29,0.504H23.288c-3.034,0-5.498,2.459-5.498,5.48v11.058c0,3.021,2.464,5.479,5.498,5.479H34.29
	c3.031,0,5.498-2.459,5.498-5.479V5.985C39.788,2.963,37.322,0.504,34.29,0.504L34.29,0.504z M37.751,17.042
	c0,1.901-1.551,3.449-3.461,3.449H23.288c-1.911,0-3.463-1.547-3.463-3.449V9.901h4.35c-0.313,0.672-0.493,1.42-0.493,2.211
	c0,2.869,2.344,5.204,5.223,5.204c2.88,0,5.224-2.334,5.224-5.204c0-0.791-0.178-1.539-0.496-2.211h4.124v7.142L37.751,17.042
	L37.751,17.042z M26.733,12.112c0-1.19,0.974-2.159,2.168-2.159c1.195,0,2.168,0.969,2.168,2.159c0,1.191-0.973,2.16-2.168,2.16
	C27.706,14.272,26.733,13.303,26.733,12.112L26.733,12.112z M37.751,7.87h-5.829c-0.854-0.604-1.896-0.964-3.021-0.964
	S26.733,7.263,25.88,7.87h-6.055V5.985c0-1.901,1.553-3.45,3.463-3.45H34.29c1.91,0,3.461,1.549,3.461,3.45V7.87L37.751,7.87
	L37.751,7.87z M35.546,3.766h-1.887c-0.337,0-0.611,0.271-0.611,0.604v1.883c0,0.334,0.272,0.606,0.611,0.606h1.887
	c0.336,0,0.611-0.272,0.611-0.606v-1.88C36.157,4.04,35.882,3.766,35.546,3.766z"/>
<g>
	<line fill="none" stroke="#000000" stroke-linecap="round" x1="15.766" y1="43.583" x2="1.766" y2="29.583"/>
	<line fill="none" stroke="#000000" stroke-linecap="round" x1="1.766" y1="43.583" x2="15.766" y2="29.583"/>
</g>
<g>
	<line fill="none" stroke="#000000" stroke-linecap="round" x1="26.48" y1="27.077" x2="26.48" y2="46.091"/>
	<polyline fill="none" stroke="#000000" stroke-linecap="round" points="30.204,42.087 26.479,46.091 22.757,42.087 	"/>
</g>
<g>
	<line fill="none" stroke="#000000" stroke-linecap="round" x1="39.055" y1="46.091" x2="39.055" y2="27.077"/>
	<polyline fill="none" stroke="#000000" stroke-linecap="round" points="35.332,31.081 39.056,27.077 42.779,31.081 	"/>
</g>
<polygon points="75.134,36.691 75.134,33.089 62.197,40.339 49.31,33.089 49.31,36.691 62.197,44.089 "/>
<polygon points="78.906,40.489 78.906,44.09 91.844,36.84 104.73,44.09 104.73,40.489 91.844,33.09 "/>
<rect x="1.766" y="53.867" fill="#FFFFFF" width="38" height="40"/>
<rect x="1.766" y="53.867" fill="none" stroke="#000000" width="38" height="40"/>
<path fill="none" stroke="#000000" stroke-linecap="round" d="M24.948,75.995L21.224,80L17.5,75.995 M21.224,67.735V80"/>
<rect x="1.766" y="98.434" width="38" height="40"/>
<rect x="1.766" y="98.434" fill="none" stroke="#000000" width="38" height="40"/>
<path fill="none" stroke="#FFFFFF" stroke-linecap="round" d="M24.948,120.562l-3.725,4.005l-3.724-4.005 M21.224,112.302v12.266"/>
<rect x="43.222" y="53.867" fill="#FFFFFF" width="38" height="40"/>
<rect x="43.222" y="53.867" fill="none" stroke="#000000" width="38" height="40"/>
<path fill="none" stroke="#000000" stroke-linecap="round" d="M64.809,70.144l4.006,3.725l-4.006,3.723 M56.548,73.868h12.267"/>
<g>
	<rect x="43.223" y="98.434" width="38" height="40"/>
	<rect x="43.223" y="98.434" fill="none" stroke="#000000" width="38" height="40"/>
	<path fill="none" stroke="#FFFFFF" stroke-linecap="round" d="M64.809,114.709l4.006,3.729l-4.006,3.723 M56.548,118.435h12.267"/>
</g>
<g>
	<rect x="89.52" y="53.867" fill="#1D1D1B" fill-opacity="0" width="13" height="13"/>
	<path d="M93.818,60.357l2.959-5.261h1.441l-2.9,5.261l2.9,5.281h-1.441L93.818,60.357z"/>
</g>
<g>
	<rect x="89.52" y="67.953" fill="#1D1D1B" fill-opacity="0" width="13" height="12.999"/>
	<path d="M98.219,74.464l-2.96,5.262h-1.44l2.9-5.262l-2.9-5.28h1.44L98.219,74.464z"/>
</g>
<g>
	<rect x="87.799" y="83.624" fill="#B9144E" fill-opacity="0" width="16.441" height="7.877"/>
	<polygon points="101.289,86.802 101.289,85.362 96.01,88.262 90.75,85.362 90.75,86.802 96.01,89.762 	"/>
</g>
<g>
	<polygon fill="none" stroke="#FFFFFF" stroke-width="4" points="3.447,160.704 3.447,204.204 46.448,204.204 46.448,182.454 
		46.448,160.704 	"/>
	<line fill="none" stroke="#FFFFFF" stroke-width="4" x1="44.493" y1="182.219" x2="5.402" y2="182.219"/>
	<line fill="none" stroke="#FFFFFF" stroke-width="4" x1="24.948" y1="202.204" x2="24.948" y2="162.704"/>
	<path fill="none" stroke="#FFFFFF" stroke-width="4" d="M27.713,157.954c0,0,13.104-20.107,16.381-13.267
		C47.37,151.532,27.713,157.954,27.713,157.954z"/>
	<path fill="none" stroke="#FFFFFF" stroke-width="4" d="M21.341,159.516c0,0-19.435,0-15.343-8.232
		C10.089,143.047,21.341,159.516,21.341,159.516z"/>
</g>
<g>
	<polygon fill="none" stroke="#000000" stroke-width="0.5" points="91.27,101.96 91.27,111.459 100.77,111.459 100.77,106.71 
		100.77,101.96 	"/>
	<line fill="none" stroke="#000000" stroke-width="0.5" x1="101.02" y1="106.71" x2="91.02" y2="106.71"/>
	<line fill="none" stroke="#000000" stroke-width="0.5" x1="96.02" y1="111.709" x2="96.02" y2="101.71"/>
	<path fill="none" stroke="#000000" stroke-width="0.5" d="M96.199,101.669c0,0,3.244-4.897,4.057-3.231
		C101.066,100.105,96.199,101.669,96.199,101.669z"/>
	<path fill="none" stroke="#000000" stroke-width="0.5" d="M95.58,101.46c0,0-4.75,0-3.75-2S95.58,101.46,95.58,101.46z"/>
</g>
<g>
	<polyline fill="none" stroke="#000000" stroke-width="1.5" stroke-linecap="round" points="69.113,162.704 69.313,168.168 
		63.848,167.969 	"/>
	<path fill="none" stroke="#000000" stroke-width="1.5" d="M68.973,167.631c-1.137-2.326-3.527-3.93-6.291-3.93
		c-3.867,0-7,3.137-7,7c0,3.865,3.133,7,7,7c3.865,0,7-3.135,7-7"/>
</g>
<g>
	<polyline fill="none" stroke="#000000" stroke-width="2" stroke-linecap="round" points="69.113,143.112 69.313,148.577 
		63.848,148.377 	"/>
	<path fill="none" stroke="#000000" stroke-width="2" d="M68.975,148.04c-1.139-2.326-3.529-3.93-6.293-3.93c-3.865,0-7,3.137-7,7
		c0,3.865,3.135,7,7,7c3.866,0,7-3.135,7-7"/>
</g>
<g>
	<circle fill="none" stroke="#000000" cx="62.682" cy="189.219" r="7"/>
	<path d="M61.85,194.01h1.114v-1.146H61.85V194.01z M62.042,191.534h0.729c0-1.354,0.063-1.714,1.139-2.316
		c0.922-0.519,1.64-1.072,1.64-2.279c0-1.307-1.089-2.218-2.753-2.218c-1.421,0-2.291,0.665-2.982,1.552l0.641,0.469
		c0.537-0.728,1.203-1.244,2.291-1.244c1.191,0,1.896,0.566,1.896,1.49s-0.449,1.258-1.473,1.861
		c-0.846,0.48-1.152,1.01-1.152,1.873C62.016,191.004,62.027,191.288,62.042,191.534"/>
</g>
<g>
	<rect x="79.318" y="164.526" fill="#3F3F3F" width="23" height="2.204"/>
	<path fill="#3F3F3F" d="M82.266,162.034h-1.988v1.246h1.988h1.82h2h1.821h2.001h1.82h2.001h1.82h2.001h1.82h1.989v-1.246h-1.989
		v-8.05h2.947l-11.464-10.493l-11.536,10.493h2.947V162.034z M84.086,162.034v-8.05h2v8.05H84.086z M87.907,162.034v-8.05h2.001
		v8.05H87.907z M91.729,162.034v-8.05h2.001v8.05H91.729z M97.551,162.034H95.55v-8.05h2.001V162.034z"/>
</g>
</svg>
